<svg width="434" height="278" viewBox="0 0 434 278" fill="none" xmlns="http://www.w3.org/2000/svg">
<path d="M88.982 92.6612C84.2229 83.056 77.7642 83.6757 73.685 92.3514C71.8498 81.1436 75.7245 75 81.8434 75C88.3021 75 92.3813 83.056 88.982 92.6612Z" fill="#D3D3D3"/>
<path d="M61.0938 101.492C75.405 114.245 124.131 112.727 132.309 101.492C132.99 124.569 110.842 130.903 99.9383 131.25C81.1976 132.768 59.3902 120.926 61.0938 101.492Z" fill="#D3D3D3"/>
<path d="M121.587 92.6612C116.828 83.056 110.369 83.6757 106.29 92.3514C104.455 81.1436 108.33 75 114.449 75C120.907 75 124.987 83.056 121.587 92.6612Z" fill="#D3D3D3"/>
<path d="M324.982 92.6612C320.223 83.056 313.764 83.6757 309.685 92.3514C307.85 81.1436 311.724 75 317.843 75C324.302 75 328.381 83.056 324.982 92.6612Z" fill="#D3D3D3"/>
<path d="M297.094 101.492C311.405 114.245 360.131 112.727 368.309 101.492C368.99 124.569 346.842 130.903 335.938 131.25C317.198 132.768 295.39 120.926 297.094 101.492Z" fill="#D3D3D3"/>
<path d="M357.587 92.6612C352.828 83.056 346.37 83.6757 342.29 92.3514C340.455 81.1436 344.33 75 350.449 75C356.907 75 360.987 83.056 357.587 92.6612Z" fill="#D3D3D3"/>
<path d="M94.9401 187.163C158.5 184.274 187.045 145.5 196.5 132.5C200.197 127.417 196.621 124.303 192 128C161.5 164.057 137.5 173.762 95.4023 173.762C59 173.762 23.7719 144.185 20.537 110.45C14.9914 64.6985 53.3483 30.0386 96.7887 31.8871C149.815 34.8849 177.516 79.4867 200.074 107.215C265.117 187.163 312.294 191 340.794 191C386 191 433.221 154.5 433.221 99.8205C433.221 49.4482 382.848 6.93202 335.711 11.0912C290.19 15.1078 265.467 31.8872 234.966 65.1606C230.807 70.2441 233.58 73.479 238.663 70.2441C272.629 40.6677 296.198 25.4173 335.711 25.4173C370.601 24.493 411.5 58.6908 410.576 99.8205C407.341 140.488 379.843 164.057 340.794 164.057C277.25 159.435 247.09 107.215 225.491 81.3353C172.346 11.0911 134.914 4.04742e-05 96.7887 0C35.5554 3.74615e-05 -5.80459 53.1452 0.665296 111.374C5.74876 149.731 44.1057 189.474 94.9401 187.163Z" fill="url(#paint0_linear)"/>
<path d="M90.2678 249.228C90.2678 253.826 89.2159 257.531 87.1123 260.342C85.0086 263.153 82.1602 264.558 78.5672 264.558C74.8997 264.558 72.0141 263.395 69.9105 261.068V275.617H64.7443V233.785H69.4637L69.715 237.136C71.8187 234.53 74.7415 233.227 78.4834 233.227C82.1137 233.227 84.9807 234.595 87.0843 237.332C89.2066 240.068 90.2678 243.875 90.2678 248.753V249.228ZM85.1017 248.641C85.1017 245.234 84.3756 242.544 82.9235 240.571C81.4714 238.598 79.4794 237.611 76.9476 237.611C73.82 237.611 71.4743 238.998 69.9105 241.772V256.209C71.4556 258.964 73.82 260.342 77.0034 260.342C79.4794 260.342 81.4435 259.364 82.8956 257.41C84.3663 255.436 85.1017 252.514 85.1017 248.641ZM111.463 238.421C110.681 238.29 109.834 238.225 108.922 238.225C105.533 238.225 103.234 239.668 102.024 242.554V264H96.8581V233.785H101.885L101.968 237.276C103.662 234.576 106.064 233.227 109.173 233.227C110.178 233.227 110.942 233.357 111.463 233.618V238.421ZM114.311 248.613C114.311 245.653 114.888 242.991 116.043 240.627C117.215 238.262 118.835 236.438 120.902 235.153C122.987 233.869 125.36 233.227 128.022 233.227C132.137 233.227 135.46 234.651 137.992 237.499C140.542 240.348 141.817 244.136 141.817 248.865V249.228C141.817 252.169 141.25 254.813 140.114 257.158C138.997 259.485 137.387 261.301 135.283 262.604C133.198 263.907 130.796 264.558 128.078 264.558C123.983 264.558 120.659 263.134 118.109 260.286C115.577 257.438 114.311 253.668 114.311 248.976V248.613ZM119.505 249.228C119.505 252.579 120.278 255.269 121.823 257.298C123.387 259.327 125.472 260.342 128.078 260.342C130.703 260.342 132.788 259.318 134.333 257.27C135.879 255.204 136.651 252.318 136.651 248.613C136.651 245.3 135.86 242.619 134.278 240.571C132.714 238.504 130.629 237.471 128.022 237.471C125.472 237.471 123.415 238.486 121.851 240.515C120.287 242.544 119.505 245.448 119.505 249.228ZM153.155 233.785L153.295 237.136C155.51 234.53 158.498 233.227 162.258 233.227C166.484 233.227 169.361 234.846 170.887 238.086C171.893 236.634 173.196 235.461 174.797 234.567C176.416 233.673 178.325 233.227 180.521 233.227C187.149 233.227 190.519 236.736 190.63 243.754V264H185.464V244.062C185.464 241.902 184.971 240.292 183.984 239.231C182.997 238.151 181.341 237.611 179.013 237.611C177.096 237.611 175.504 238.188 174.238 239.342C172.972 240.478 172.237 242.014 172.032 243.95V264H166.838V244.201C166.838 239.808 164.688 237.611 160.387 237.611C156.999 237.611 154.681 239.054 153.434 241.939V264H148.268V233.785H153.155ZM197.081 248.613C197.081 245.653 197.658 242.991 198.812 240.627C199.985 238.262 201.605 236.438 203.671 235.153C205.756 233.869 208.13 233.227 210.792 233.227C214.906 233.227 218.229 234.651 220.761 237.499C223.312 240.348 224.587 244.136 224.587 248.865V249.228C224.587 252.169 224.019 254.813 222.884 257.158C221.767 259.485 220.156 261.301 218.053 262.604C215.968 263.907 213.566 264.558 210.848 264.558C206.752 264.558 203.429 263.134 200.879 260.286C198.347 257.438 197.081 253.668 197.081 248.976V248.613ZM202.275 249.228C202.275 252.579 203.048 255.269 204.593 257.298C206.157 259.327 208.242 260.342 210.848 260.342C213.473 260.342 215.558 259.318 217.103 257.27C218.648 255.204 219.421 252.318 219.421 248.613C219.421 245.3 218.63 242.619 217.047 240.571C215.483 238.504 213.398 237.471 210.792 237.471C208.242 237.471 206.184 238.486 204.621 240.515C203.057 242.544 202.275 245.448 202.275 249.228ZM238.075 226.469V233.785H243.716V237.778H238.075V256.516C238.075 257.726 238.326 258.638 238.829 259.253C239.331 259.848 240.188 260.146 241.398 260.146C241.994 260.146 242.813 260.035 243.855 259.811V264C242.496 264.372 241.174 264.558 239.89 264.558C237.581 264.558 235.841 263.86 234.668 262.464C233.495 261.068 232.909 259.085 232.909 256.516V237.778H227.407V233.785H232.909V226.469H238.075ZM262.314 264.558C258.218 264.558 254.886 263.218 252.317 260.537C249.747 257.838 248.463 254.236 248.463 249.73V248.781C248.463 245.784 249.031 243.112 250.166 240.766C251.321 238.402 252.922 236.559 254.969 235.237C257.036 233.897 259.27 233.227 261.671 233.227C265.6 233.227 268.653 234.521 270.831 237.108C273.009 239.696 274.098 243.401 274.098 248.222V250.373H253.629C253.703 253.351 254.569 255.762 256.226 257.605C257.902 259.43 260.024 260.342 262.593 260.342C264.417 260.342 265.963 259.969 267.228 259.225C268.494 258.48 269.602 257.493 270.552 256.265L273.707 258.722C271.175 262.613 267.377 264.558 262.314 264.558ZM261.671 237.471C259.586 237.471 257.836 238.235 256.422 239.761C255.007 241.269 254.132 243.391 253.797 246.128H268.932V245.737C268.783 243.112 268.076 241.083 266.81 239.649C265.544 238.197 263.831 237.471 261.671 237.471Z" fill="#666666"/>
<path d="M280.214 261.291C280.214 260.398 280.474 259.653 280.996 259.057C281.535 258.462 282.336 258.164 283.397 258.164C284.458 258.164 285.259 258.462 285.799 259.057C286.357 259.653 286.636 260.398 286.636 261.291C286.636 262.148 286.357 262.864 285.799 263.442C285.259 264.019 284.458 264.307 283.397 264.307C282.336 264.307 281.535 264.019 280.996 263.442C280.474 262.864 280.214 262.148 280.214 261.291ZM300.04 233.785L300.18 237.136C302.395 234.53 305.383 233.227 309.144 233.227C313.37 233.227 316.246 234.846 317.773 238.086C318.778 236.634 320.081 235.461 321.682 234.567C323.302 233.673 325.21 233.227 327.407 233.227C334.034 233.227 337.404 236.736 337.516 243.754V264H332.35V244.062C332.35 241.902 331.856 240.292 330.87 239.231C329.883 238.151 328.226 237.611 325.899 237.611C323.981 237.611 322.39 238.188 321.124 239.342C319.858 240.478 319.122 242.014 318.918 243.95V264H313.724V244.201C313.724 239.808 311.573 237.611 307.273 237.611C303.885 237.611 301.567 239.054 300.32 241.939V264H295.154V233.785H300.04ZM357.873 264.558C353.777 264.558 350.445 263.218 347.876 260.537C345.307 257.838 344.022 254.236 344.022 249.73V248.781C344.022 245.784 344.59 243.112 345.726 240.766C346.88 238.402 348.481 236.559 350.529 235.237C352.595 233.897 354.829 233.227 357.231 233.227C361.159 233.227 364.212 234.521 366.39 237.108C368.568 239.696 369.657 243.401 369.657 248.222V250.373H349.188C349.263 253.351 350.129 255.762 351.785 257.605C353.461 259.43 355.583 260.342 358.152 260.342C359.977 260.342 361.522 259.969 362.788 259.225C364.054 258.48 365.161 257.493 366.111 256.265L369.266 258.722C366.735 262.613 362.937 264.558 357.873 264.558ZM357.231 237.471C355.146 237.471 353.396 238.235 351.981 239.761C350.566 241.269 349.691 243.391 349.356 246.128H364.491V245.737C364.342 243.112 363.635 241.083 362.369 239.649C361.103 238.197 359.39 237.471 357.231 237.471Z" fill="#26D757"/>
<defs>
<linearGradient id="paint0_linear" x1="715.301" y1="-51.0228" x2="-142.275" y2="359.122" gradientUnits="userSpaceOnUse">
<stop stop-color="#26D757"/>
<stop offset="1" stop-color="#199EAF"/>
</linearGradient>
</defs>
</svg>
